<?xml version="1.0" encoding="UTF-8" standalone="no"?>
<!DOCTYPE svg PUBLIC "-//W3C//DTD SVG 1.1//EN" "http://www.w3.org/Graphics/SVG/1.1/DTD/svg11.dtd">
<svg xmlns="http://www.w3.org/2000/svg" version="1.1" viewBox="0.00 0.00 500.00 500.00">
<path fill="#b18737" d="
  M 185.91 237.77
  Q 193.44 250.29 204.86 260.67
  C 210.45 265.76 219.49 269.51 225.89 273.54
  Q 230.01 276.15 233.88 279.14
  Q 235.28 280.22 234.17 281.88
  A 2.07 2.06 30.4 0 1 231.50 282.57
  C 222.38 277.88 213.46 270.84 204.65 267.09
  C 194.07 262.59 182.58 261.32 171.32 259.98
  Q 170.59 259.90 170.95 260.54
  Q 171.19 260.94 171.84 261.40
  Q 198.88 280.26 231.41 286.10
  Q 231.90 286.19 232.13 286.47
  Q 232.49 286.91 232.16 287.43
  A 0.94 0.94 0.0 0 1 231.27 287.86
  Q 191.45 283.46 159.27 260.77
  Q 157.79 259.72 156.77 260.20
  Q 156.41 260.37 156.02 260.39
  Q 141.73 261.37 128.24 266.17
  Q 126.56 266.76 127.98 267.83
  C 160.13 291.88 193.48 297.16 232.53 291.29
  A 0.61 0.61 0.0 0 1 232.98 292.38
  C 231.72 293.30 229.82 293.59 228.24 293.93
  C 188.78 302.48 149.27 296.39 116.20 272.53
  C 115.16 271.78 113.98 271.54 112.73 272.20
  Q 100.52 278.73 89.71 286.53
  A 0.80 0.80 0.0 0 0 89.67 287.80
  C 132.68 323.00 187.39 322.25 233.73 295.70
  A 0.67 0.67 0.0 0 1 234.73 296.32
  Q 234.65 297.60 233.31 298.39
  Q 227.87 301.59 222.36 304.67
  C 170.77 333.51 109.82 327.52 65.87 287.56
  Q 65.38 287.11 65.88 286.68
  Q 82.99 271.96 103.67 262.91
  A 0.43 0.43 0.0 0 0 103.80 262.22
  Q 87.68 246.27 76.96 226.28
  A 0.67 0.66 -23.3 0 1 77.34 225.34
  Q 98.74 218.13 121.25 216.03
  A 0.47 0.47 0.0 0 0 121.63 215.35
  Q 111.61 195.17 108.43 172.85
  Q 108.23 171.43 109.65 171.45
  Q 131.64 171.76 152.88 177.39
  Q 153.48 177.55 153.50 176.93
  Q 153.56 175.57 153.32 173.19
  Q 151.27 153.15 155.97 131.83
  Q 156.08 131.32 156.57 131.50
  Q 177.55 139.06 195.70 152.06
  A 0.93 0.93 0.0 0 0 197.14 151.52
  Q 202.32 130.19 213.71 111.41
  Q 214.52 110.08 215.70 111.09
  Q 232.29 125.27 244.73 143.20
  A 0.72 0.71 -43.8 0 0 245.89 143.22
  C 254.66 131.29 264.33 119.71 276.12 110.71
  A 0.68 0.68 0.0 0 1 277.12 110.91
  Q 288.29 130.16 293.77 151.75
  A 0.74 0.74 0.0 0 0 294.93 152.16
  Q 312.62 139.12 333.46 132.16
  Q 334.60 131.79 335.06 132.89
  Q 335.80 134.69 336.11 137.18
  Q 338.63 157.17 337.04 177.23
  Q 336.99 177.78 337.53 177.64
  Q 347.96 174.83 358.58 173.27
  C 365.84 172.21 373.91 172.58 381.54 172.23
  Q 382.81 172.17 382.56 173.42
  Q 378.31 195.10 369.21 215.20
  A 0.64 0.64 0.0 0 0 369.76 216.10
  Q 392.26 217.45 413.14 225.82
  Q 413.71 226.05 413.40 226.58
  Q 402.25 246.07 386.25 261.81
  A 0.66 0.65 -55.8 0 0 386.45 262.88
  Q 406.75 271.61 423.27 286.28
  Q 424.22 287.13 423.34 288.05
  Q 422.73 288.68 421.62 289.59
  C 395.20 311.38 364.45 324.03 329.24 322.37
  Q 288.72 320.46 256.15 296.59
  Q 255.38 296.02 255.28 295.48
  A 0.78 0.77 -78.7 0 1 256.46 294.69
  C 302.30 324.05 357.42 321.24 400.19 287.77
  A 0.58 0.58 0.0 0 0 400.20 286.87
  Q 389.25 277.78 376.43 271.61
  A 1.24 1.23 39.4 0 0 375.15 271.73
  C 341.41 296.79 302.17 302.92 261.20 293.21
  Q 259.00 292.69 257.47 291.55
  A 0.64 0.64 0.0 0 1 257.99 290.41
  Q 316.24 302.90 362.81 267.28
  A 0.57 0.56 -53.8 0 0 362.66 266.30
  C 353.10 262.78 343.76 261.74 333.89 259.86
  Q 333.40 259.77 332.99 260.06
  Q 301.10 283.54 261.44 287.55
  Q 259.67 287.72 258.16 287.40
  A 0.73 0.73 0.0 0 1 258.20 285.96
  Q 292.10 280.98 319.74 260.96
  A 0.34 0.33 33.9 0 0 319.62 260.36
  C 317.73 259.94 315.53 260.47 314.05 260.54
  C 300.24 261.23 288.51 264.83 276.84 272.13
  Q 267.54 277.96 257.65 282.48
  A 0.65 0.65 0.0 0 1 256.74 281.96
  Q 256.64 281.12 257.61 280.66
  Q 261.60 278.77 266.83 275.07
  Q 268.76 273.70 266.55 274.54
  C 263.35 275.74 259.98 278.22 256.84 279.92
  Q 256.31 280.21 255.85 279.81
  L 254.01 278.19
  Q 253.59 277.82 253.96 277.40
  L 262.96 266.97
  A 0.32 0.32 0.0 0 0 262.51 266.51
  Q 257.62 270.81 253.75 276.20
  A 1.80 1.80 0.0 0 1 250.59 274.57
  L 255.58 260.05
  A 0.29 0.29 0.0 0 0 255.21 259.68
  L 254.86 259.80
  A 0.41 0.41 0.0 0 0 254.60 260.05
  L 249.42 273.95
  A 1.71 1.70 -67.6 0 1 247.12 274.91
  C 244.69 273.82 245.99 271.74 246.01 269.92
  Q 246.06 263.40 245.68 256.87
  Q 245.66 256.47 245.46 256.33
  Q 245.32 256.24 245.14 256.24
  Q 244.77 256.23 244.75 256.61
  Q 244.40 263.12 244.86 269.62
  C 245.07 272.58 244.29 274.14 241.90 275.58
  Q 241.46 275.84 241.28 275.36
  L 236.12 261.45
  Q 235.87 260.78 235.56 261.42
  Q 235.37 261.79 235.52 262.20
  Q 237.08 266.52 238.58 270.86
  C 239.84 274.47 240.12 276.68 236.17 278.21
  Q 234.87 278.71 233.88 277.86
  C 227.82 272.63 222.79 265.31 218.16 258.81
  C 211.69 249.77 196.43 241.63 186.52 237.08
  Q 185.11 236.43 185.91 237.77
  Z
  M 219.18 133.77
  A 0.79 0.79 0.0 0 0 217.94 133.98
  Q 211.41 146.73 207.20 160.41
  A 0.80 0.79 -59.2 0 0 207.40 161.22
  Q 218.46 172.21 227.52 184.92
  A 0.26 0.26 0.0 0 0 227.98 184.83
  Q 231.69 170.10 238.24 156.42
  Q 238.47 155.94 238.17 155.51
  Q 229.76 143.69 219.18 133.77
  Z
  M 272.11 133.89
  C 265.02 139.86 258.32 147.49 252.75 154.86
  A 1.75 1.74 49.8 0 0 252.60 156.70
  Q 259.48 169.96 262.97 184.50
  A 0.53 0.53 0.0 0 0 263.93 184.67
  Q 272.11 172.27 283.00 162.20
  A 1.69 1.68 60.5 0 0 283.47 160.48
  Q 279.36 146.80 272.96 134.06
  A 0.55 0.55 0.0 0 0 272.11 133.89
  Z
  M 193.49 165.42
  Q 181.52 157.19 168.05 151.70
  A 0.36 0.35 -74.5 0 0 167.57 151.98
  C 166.82 156.89 163.12 180.12 168.01 182.52
  Q 181.58 189.17 193.88 197.78
  A 0.29 0.29 0.0 0 0 194.33 197.51
  Q 192.30 182.29 194.22 167.04
  A 1.71 1.69 -69.6 0 0 193.49 165.42
  Z
  M 297.97 181.40
  C 298.32 186.51 296.87 191.81 297.36 197.28
  Q 297.42 197.98 297.98 197.56
  Q 310.01 188.57 323.88 182.79
  Q 324.39 182.57 324.41 182.03
  Q 324.92 167.26 323.72 152.55
  A 0.69 0.68 76.5 0 0 322.78 151.97
  Q 309.25 157.31 297.17 165.42
  Q 296.73 165.72 296.78 166.24
  Q 297.44 173.83 297.97 181.40
  Z
  M 245.75 227.76
  C 248.37 216.56 252.22 206.75 257.21 196.45
  Q 257.43 195.99 257.30 195.50
  Q 253.32 180.98 245.91 167.88
  A 0.59 0.59 0.0 0 0 244.88 167.89
  Q 237.64 181.19 233.71 195.84
  A 1.49 1.47 -51.8 0 0 233.83 196.89
  C 239.82 208.20 242.13 216.90 245.33 227.78
  Q 245.56 228.58 245.75 227.76
  Z
  M 286.05 174.37
  C 280.49 178.97 265.49 193.85 265.89 199.50
  Q 266.34 205.79 266.57 212.08
  C 266.80 218.64 265.65 225.61 265.16 232.38
  A 0.37 0.37 0.0 0 0 265.85 232.60
  Q 274.70 218.15 287.26 206.74
  A 1.46 1.44 70.6 0 0 287.73 205.74
  Q 288.66 190.19 286.86 174.70
  A 0.50 0.50 0.0 0 0 286.05 174.37
  Z
  M 225.44 199.49
  C 226.01 194.55 209.42 177.64 205.09 174.66
  A 0.65 0.65 0.0 0 0 204.08 175.08
  Q 201.39 190.07 203.23 205.16
  Q 203.30 205.74 203.73 206.15
  Q 215.36 217.45 224.32 230.94
  Q 226.03 233.51 225.61 230.45
  Q 223.56 215.73 225.44 199.49
  Z
  M 154.78 190.65
  Q 140.61 187.42 126.10 186.50
  A 0.27 0.27 0.0 0 0 125.82 186.83
  Q 129.12 201.00 134.53 214.20
  C 134.91 215.12 136.25 216.09 137.40 216.18
  Q 152.01 217.33 165.74 221.19
  A 0.68 0.68 0.0 0 0 166.54 220.24
  Q 159.93 206.61 156.11 191.94
  A 1.78 1.78 0.0 0 0 154.78 190.65
  Z
  M 334.41 191.83
  Q 331.21 206.87 324.20 220.51
  A 0.52 0.52 0.0 0 0 324.80 221.25
  Q 339.51 217.13 354.73 215.80
  Q 355.24 215.75 355.46 215.29
  Q 361.57 202.04 364.41 187.73
  Q 364.51 187.21 363.99 187.22
  Q 349.33 187.34 335.15 191.05
  A 1.02 1.02 0.0 0 0 334.41 191.83
  Z
  M 195.06 209.19
  Q 182.90 201.02 169.29 195.20
  A 0.72 0.72 0.0 0 0 168.30 196.01
  Q 171.47 211.28 178.42 225.29
  A 1.71 1.70 -1.0 0 0 179.24 226.08
  Q 194.76 233.09 208.19 243.56
  Q 209.16 244.31 208.66 243.19
  C 203.73 232.26 200.02 224.92 196.34 210.59
  Q 196.17 209.93 195.06 209.19
  Z
  M 294.75 210.52
  Q 290.79 226.67 283.38 241.55
  A 0.45 0.45 0.0 0 0 284.05 242.12
  Q 297.18 232.72 311.77 225.84
  A 2.33 2.33 0.0 0 0 312.91 224.70
  Q 319.43 210.89 322.51 195.94
  A 0.51 0.51 0.0 0 0 321.82 195.36
  Q 307.64 201.13 295.15 209.93
  A 1.02 1.02 0.0 0 0 294.75 210.52
  Z
  M 242.00 267.83
  C 241.85 263.03 241.44 258.71 242.26 253.84
  C 243.12 248.79 243.67 243.78 242.58 238.43
  Q 239.38 222.73 231.92 208.57
  A 0.25 0.25 0.0 0 0 231.45 208.65
  Q 228.91 224.51 231.42 240.38
  C 232.28 245.81 234.86 251.02 237.06 256.15
  C 238.46 259.42 239.67 263.97 241.16 268.00
  A 0.44 0.43 -56.3 0 0 242.00 267.83
  Z
  M 258.76 209.15
  Q 251.86 223.00 248.23 237.75
  Q 246.89 243.20 248.30 250.43
  Q 249.96 258.94 247.37 270.02
  Q 247.33 270.21 247.39 270.31
  Q 247.47 270.42 247.63 270.47
  A 0.45 0.45 0.0 0 0 248.18 270.18
  Q 252.24 258.24 257.63 246.80
  Q 259.15 243.57 259.54 240.42
  Q 261.48 224.80 259.87 209.35
  A 0.59 0.59 0.0 0 0 258.76 209.15
  Z
  M 229.47 250.98
  C 226.48 239.42 214.71 226.13 206.03 218.19
  A 0.33 0.33 0.0 0 0 205.49 218.50
  C 208.16 230.46 213.50 246.88 222.03 255.94
  Q 230.10 264.51 236.88 274.23
  A 0.25 0.25 0.0 0 0 237.31 273.99
  Q 232.55 262.88 229.47 250.98
  Z
  M 260.94 251.99
  C 258.69 259.75 257.00 264.94 253.95 271.22
  A 0.46 0.46 0.0 0 0 254.74 271.69
  Q 261.08 262.93 268.85 255.53
  C 277.25 247.54 282.90 230.08 285.41 219.06
  A 0.35 0.34 75.9 0 0 284.85 218.72
  C 274.78 227.61 264.79 238.72 260.94 251.99
  Z
  M 316.79 233.77
  Q 307.55 246.89 295.90 257.93
  A 0.40 0.40 0.0 0 0 296.30 258.60
  Q 312.01 253.48 328.52 252.51
  A 3.18 3.17 -69.6 0 0 330.58 251.56
  Q 341.20 240.64 349.19 227.67
  A 0.50 0.49 13.1 0 0 348.72 226.92
  C 339.64 227.79 326.68 227.98 318.79 232.03
  A 5.46 5.42 3.8 0 0 316.79 233.77
  Z
  M 342.80 252.43
  C 353.32 253.17 362.54 255.45 372.81 257.71
  Q 373.34 257.82 373.70 257.42
  Q 383.37 246.66 391.34 234.57
  Q 391.70 234.02 391.08 233.82
  Q 377.86 229.48 364.05 227.52
  A 2.45 2.44 -69.3 0 0 361.68 228.59
  Q 353.33 241.22 342.59 251.89
  A 0.32 0.31 24.4 0 0 342.80 252.43
  Z
  M 147.87 251.00
  Q 137.08 240.63 128.81 228.12
  A 0.94 0.94 0.0 0 0 127.99 227.70
  C 118.32 228.11 106.98 231.30 99.15 233.45
  Q 98.55 233.62 98.87 234.15
  Q 106.40 246.89 116.76 257.46
  Q 117.17 257.88 117.73 257.71
  Q 132.66 253.18 148.25 252.51
  Q 149.23 252.47 148.80 251.55
  Q 148.73 251.40 148.32 251.26
  Q 148.05 251.17 147.87 251.00
  Z
  M 193.41 255.83
  Q 182.55 245.39 173.98 233.02
  Q 173.60 232.47 172.25 232.03
  Q 157.76 227.28 142.58 227.73
  A 0.57 0.57 0.0 0 0 142.12 228.61
  Q 150.30 241.28 160.99 251.91
  Q 161.36 252.27 161.87 252.32
  Q 179.25 253.98 195.77 259.61
  A 0.47 0.47 0.0 0 0 196.28 258.85
  Q 195.04 257.39 193.41 255.83
  Z
  M 274.94 255.69
  Q 267.88 265.52 259.96 274.32
  A 0.45 0.45 0.0 0 0 260.53 275.01
  Q 269.21 269.91 278.30 265.54
  C 289.23 260.28 299.39 246.86 305.86 236.96
  A 0.51 0.51 0.0 0 0 305.23 236.22
  Q 290.72 242.87 278.02 252.53
  Q 276.24 253.88 274.94 255.69
  Z
  M 230.7569 269.8585
  A 0.27 0.27 0.0 0 0 230.3772 269.8179
  L 230.2060 269.9561
  A 0.27 0.27 0.0 0 0 230.1654 270.3357
  L 234.9631 276.2815
  A 0.27 0.27 0.0 0 0 235.3428 276.3221
  L 235.5140 276.1839
  A 0.27 0.27 0.0 0 0 235.5546 275.8043
  L 230.7569 269.8585
  Z"
/>
<path fill="#b18737" d="
  M 96.87 369.47
  C 86.35 378.29 64.49 378.84 61.58 361.58
  C 58.88 345.51 68.36 335.76 84.50 338.12
  Q 92.81 339.33 96.15 346.82
  Q 96.40 347.37 95.82 347.54
  L 89.99 349.27
  Q 89.54 349.40 89.27 349.02
  Q 83.75 341.12 74.65 344.94
  C 67.52 347.93 68.05 360.28 71.30 365.43
  C 74.43 370.41 86.17 370.57 89.82 366.53
  Q 90.12 366.20 90.10 365.75
  L 89.96 361.72
  A 0.49 0.49 0.0 0 0 89.47 361.25
  L 81.75 361.25
  Q 81.25 361.25 81.25 360.75
  L 81.25 356.14
  Q 81.25 355.59 81.80 355.59
  L 96.49 355.54
  Q 97.25 355.54 97.25 356.30
  L 97.25 368.65
  A 1.08 1.07 70.1 0 1 96.87 369.47
  Z"
/>
<path fill="#b18737" d="
  M 264.25 360.42
  C 259.14 358.85 254.01 358.55 249.76 355.79
  C 244.33 352.27 244.57 344.29 249.41 340.69
  C 256.24 335.59 272.34 336.32 274.90 346.40
  A 0.53 0.53 0.0 0 1 274.46 347.05
  L 268.58 347.86
  Q 267.95 347.95 267.63 347.40
  Q 264.13 341.55 256.67 343.73
  C 251.17 345.34 252.89 351.05 257.50 352.00
  C 264.71 353.49 276.07 354.62 275.92 364.68
  C 275.76 375.70 261.50 376.65 253.72 374.88
  Q 246.79 373.31 244.17 366.30
  A 0.73 0.72 -15.2 0 1 244.73 365.33
  L 251.02 364.21
  A 0.61 0.60 76.3 0 1 251.70 364.63
  C 253.52 370.40 264.98 371.85 267.85 367.10
  C 269.71 364.01 267.23 361.34 264.25 360.42
  Z"
/>
<path fill="#b18737" d="
  M 128.35 360.18
  L 137.56 374.41
  A 0.38 0.38 0.0 0 1 137.24 375.00
  L 129.76 375.00
  Q 129.24 375.00 128.97 374.55
  L 120.98 361.44
  Q 120.71 361.00 120.19 361.00
  L 112.37 361.00
  Q 111.75 361.00 111.75 361.62
  L 111.75 374.34
  A 0.65 0.65 0.0 0 1 111.10 374.99
  L 104.63 375.00
  Q 104.00 375.00 104.00 374.38
  L 104.00 339.00
  Q 104.00 338.42 104.58 338.39
  Q 114.10 337.86 123.43 338.52
  C 130.81 339.04 136.50 341.90 136.03 349.98
  Q 135.61 356.99 128.63 359.38
  Q 127.98 359.60 128.35 360.18
  Z
  M 111.76 344.89
  L 111.72 354.49
  A 0.68 0.68 0.0 0 0 112.40 355.17
  L 122.02 355.21
  A 6.24 4.99 0.2 0 0 128.28 350.24
  L 128.28 349.26
  A 6.24 4.99 0.2 0 0 122.06 344.25
  L 112.44 344.21
  A 0.68 0.68 0.0 0 0 111.76 344.89
  Z"
/>
<rect fill="#b18737" x="142.50" y="338.25" width="7.76" height="36.76" rx="0.60"/>
<path fill="#b18737" d="
  M 171.87 353.20
  L 180.33 338.47
  A 0.43 0.43 0.0 0 1 180.70 338.25
  L 187.79 338.25
  A 0.43 0.43 0.0 0 1 188.15 338.90
  L 175.56 359.62
  A 0.43 0.43 0.0 0 0 175.50 359.84
  L 175.50 374.56
  A 0.43 0.43 0.0 0 1 175.07 374.99
  L 168.18 375.00
  A 0.43 0.43 0.0 0 1 167.75 374.57
  L 167.75 360.13
  A 0.43 0.43 0.0 0 0 167.69 359.91
  L 155.00 338.90
  A 0.43 0.43 0.0 0 1 155.37 338.25
  L 162.40 338.25
  A 0.43 0.43 0.0 0 1 162.77 338.47
  L 171.12 353.19
  A 0.43 0.43 0.0 0 0 171.87 353.20
  Z"
/>
<path fill="#b18737" d="
  M 215.23 365.75
  L 201.78 365.75
  A 0.44 0.44 0.0 0 0 201.37 366.05
  L 198.39 374.70
  A 0.44 0.44 0.0 0 1 197.98 375.00
  L 191.19 375.00
  A 0.44 0.44 0.0 0 1 190.78 374.41
  L 203.86 338.55
  A 0.44 0.44 0.0 0 1 204.28 338.26
  L 212.66 338.25
  A 0.44 0.44 0.0 0 1 213.08 338.54
  L 226.14 374.41
  A 0.44 0.44 0.0 0 1 225.73 375.00
  L 219.03 375.00
  A 0.44 0.44 0.0 0 1 218.62 374.70
  L 215.64 366.05
  A 0.44 0.44 0.0 0 0 215.23 365.75
  Z
  M 203.41 359.30
  A 0.34 0.34 0.0 0 0 203.73 359.75
  L 213.25 359.75
  A 0.34 0.34 0.0 0 0 213.57 359.30
  L 208.81 345.45
  A 0.34 0.34 0.0 0 0 208.17 345.45
  L 203.41 359.30
  Z"
/>
<path fill="#b18737" d="
  M 304.22 365.75
  L 290.80 365.75
  A 0.44 0.44 0.0 0 0 290.39 366.04
  L 287.35 374.71
  A 0.44 0.44 0.0 0 1 286.94 375.00
  L 280.18 375.00
  A 0.44 0.44 0.0 0 1 279.77 374.41
  L 292.90 338.54
  A 0.44 0.44 0.0 0 1 293.32 338.25
  L 301.64 338.25
  A 0.44 0.44 0.0 0 1 302.06 338.54
  L 315.16 374.41
  A 0.44 0.44 0.0 0 1 314.75 375.00
  L 308.02 375.00
  A 0.44 0.44 0.0 0 1 307.61 374.70
  L 304.63 366.05
  A 0.44 0.44 0.0 0 0 304.22 365.75
  Z
  M 292.44 359.31
  A 0.34 0.34 0.0 0 0 292.76 359.76
  L 302.26 359.74
  A 0.34 0.34 0.0 0 0 302.58 359.29
  L 297.81 345.42
  A 0.34 0.34 0.0 0 0 297.16 345.42
  L 292.44 359.31
  Z"
/>
<path fill="#b18737" d="
  M 328.54 355.50
  L 346.30 355.50
  A 0.54 0.54 0.0 0 1 346.84 356.04
  L 346.88 360.99
  A 0.54 0.54 0.0 0 1 346.33 361.54
  L 328.54 361.48
  A 0.54 0.54 0.0 0 0 328.00 362.02
  L 328.00 374.46
  A 0.54 0.54 0.0 0 1 327.46 375.00
  L 320.79 375.00
  A 0.54 0.54 0.0 0 1 320.25 374.46
  L 320.25 338.79
  A 0.54 0.54 0.0 0 1 320.79 338.25
  L 346.96 338.25
  A 0.54 0.54 0.0 0 1 347.50 338.79
  L 347.50 343.71
  A 0.54 0.54 0.0 0 1 346.96 344.25
  L 328.54 344.25
  A 0.54 0.54 0.0 0 0 328.00 344.79
  L 328.00 354.96
  A 0.54 0.54 0.0 0 0 328.54 355.50
  Z"
/>
<rect fill="#b18737" x="352.75" y="338.25" width="7.76" height="36.74" rx="0.56"/>
<path fill="#b18737" d="
  M 375.25 361.66
  L 375.25 374.50
  Q 375.25 375.00 374.75 375.00
  L 368.13 375.00
  Q 367.50 375.00 367.50 374.37
  L 367.50 339.00
  Q 367.50 338.42 368.08 338.39
  C 374.93 338.01 389.99 336.89 395.67 340.90
  C 402.43 345.68 400.14 356.62 392.08 359.43
  A 0.50 0.50 0.0 0 0 391.83 360.17
  L 401.01 374.30
  Q 401.46 374.99 400.63 374.99
  L 393.37 375.00
  Q 392.76 375.00 392.45 374.49
  L 384.53 361.54
  Q 384.19 361.00 383.55 361.00
  L 375.90 361.01
  A 0.65 0.65 0.0 0 0 375.25 361.66
  Z
  M 375.22 344.71
  L 375.28 354.67
  A 0.40 0.40 0.0 0 0 375.68 355.07
  L 386.23 355.02
  A 5.57 4.84 -0.3 0 0 391.77 350.15
  L 391.77 349.07
  A 5.57 4.84 -0.3 0 0 386.17 344.26
  L 375.62 344.31
  A 0.40 0.40 0.0 0 0 375.22 344.71
  Z"
/>
<path fill="#b18737" d="
  M 414.63 366.08
  L 411.61 374.67
  A 0.49 0.49 0.0 0 1 411.15 375.00
  L 404.52 375.00
  A 0.49 0.49 0.0 0 1 404.06 374.34
  L 417.11 338.57
  A 0.49 0.49 0.0 0 1 417.57 338.25
  L 425.88 338.25
  A 0.49 0.49 0.0 0 1 426.34 338.57
  L 439.38 374.34
  A 0.49 0.49 0.0 0 1 438.92 375.00
  L 432.32 375.00
  A 0.49 0.49 0.0 0 1 431.86 374.67
  L 428.88 366.08
  A 0.49 0.49 0.0 0 0 428.42 365.75
  L 415.09 365.75
  A 0.49 0.49 0.0 0 0 414.63 366.08
  Z
  M 416.70 359.32
  A 0.33 0.33 0.0 0 0 417.01 359.76
  L 426.50 359.74
  A 0.33 0.33 0.0 0 0 426.81 359.30
  L 422.05 345.37
  A 0.33 0.33 0.0 0 0 421.42 345.37
  L 416.70 359.32
  Z"
/>
<path fill="#b18737" d="
  M 230.60 405.14
  Q 229.92 406.25 228.57 405.96
  A 0.41 0.40 -84.9 0 1 228.24 405.56
  L 228.06 386.85
  A 0.79 0.79 0.0 0 1 228.85 386.06
  L 229.94 386.06
  Q 230.50 386.06 230.50 386.62
  L 230.50 392.27
  A 0.45 0.45 0.0 0 0 231.18 392.65
  C 243.16 385.23 244.27 411.55 231.17 404.97
  Q 230.81 404.79 230.60 405.14
  Z
  M 234.1692 404.5999
  A 5.85 3.80 90.4 0 0 238.0099 398.7765
  A 5.85 3.80 90.4 0 0 234.2508 392.9001
  A 5.85 3.80 90.4 0 0 230.4101 398.7235
  A 5.85 3.80 90.4 0 0 234.1692 404.5999
  Z"
/>
<circle fill="#b18737" cx="273.77" cy="387.23" r="1.32"/>
<path fill="#b18737" d="
  M 287.82 392.55
  L 287.72 386.63
  Q 287.70 385.89 288.44 385.99
  L 289.63 386.14
  A 0.72 0.71 -86.4 0 1 290.25 386.85
  L 290.25 405.27
  Q 290.25 405.89 289.64 406.00
  Q 288.20 406.26 287.95 404.93
  Q 287.81 404.19 287.25 404.69
  C 283.95 407.66 279.31 406.39 278.25 402.01
  C 276.89 396.44 279.74 387.12 287.36 392.79
  Q 287.83 393.14 287.82 392.55
  Z
  M 284.1010 404.5399
  A 5.87 3.80 89.6 0 0 287.8599 398.6435
  A 5.87 3.80 89.6 0 0 284.0190 392.8001
  A 5.87 3.80 89.6 0 0 280.2601 398.6965
  A 5.87 3.80 89.6 0 0 284.1010 404.5399
  Z"
/>
<path fill="#b18737" d="
  M 175.78 393.86
  L 175.75 403.23
  A 1.02 1.01 -8.3 0 0 177.06 404.20
  Q 178.03 403.91 178.35 404.21
  Q 179.76 405.53 177.88 405.96
  C 171.21 407.51 173.27 397.57 173.20 393.97
  A 0.71 0.70 6.4 0 0 172.66 393.30
  Q 171.91 393.12 171.50 392.53
  Q 170.82 391.55 172.01 391.52
  Q 174.24 391.48 173.90 389.17
  A 0.57 0.53 58.9 0 1 173.98 388.79
  Q 174.66 387.73 175.40 388.22
  Q 175.75 388.45 175.75 388.86
  L 175.75 390.87
  Q 175.75 391.50 176.38 391.50
  L 177.87 391.50
  Q 178.50 391.50 178.50 392.13
  L 178.50 392.63
  Q 178.50 393.25 177.88 393.25
  L 176.39 393.25
  Q 175.79 393.25 175.78 393.86
  Z"
/>
<path fill="#b18737" d="
  M 145.65 392.70
  C 148.32 391.53 151.63 389.68 153.53 393.18
  C 154.90 395.71 154.25 402.13 154.25 405.33
  Q 154.25 405.94 153.63 405.94
  L 152.44 405.94
  Q 151.75 405.94 151.75 405.26
  L 151.74 395.34
  A 2.39 2.39 0.0 0 0 149.10 392.96
  C 143.52 393.57 144.98 401.59 144.99 405.45
  Q 144.99 406.02 144.42 406.01
  L 143.25 405.98
  Q 142.72 405.96 142.72 405.44
  L 142.70 392.02
  Q 142.70 391.49 143.22 391.39
  L 144.07 391.23
  A 0.57 0.57 0.0 0 1 144.75 391.85
  Q 144.72 392.05 144.78 392.27
  Q 144.96 393.01 145.65 392.70
  Z"
/>
<path fill="#b18737" d="
  M 167.02 404.02
  A 0.33 0.33 0.0 0 0 166.44 403.81
  C 158.06 412.97 151.24 395.17 165.42 397.32
  A 1.06 1.06 0.0 0 0 166.63 396.42
  C 167.05 393.46 163.63 391.98 161.22 393.77
  Q 160.82 394.07 160.63 394.54
  Q 160.25 395.53 158.84 395.29
  A 1.12 1.12 0.0 0 1 158.28 393.34
  Q 161.33 390.65 165.00 391.29
  C 170.36 392.22 169.38 398.76 169.30 402.76
  Q 169.26 404.59 170.98 404.48
  A 0.60 0.60 0.0 0 1 171.31 405.61
  C 169.86 406.42 167.10 406.42 167.02 404.02
  Z
  M 162.09 399.15
  C 159.67 399.43 159.03 402.29 160.49 403.90
  A 1.21 1.18 -18.5 0 0 161.26 404.27
  Q 166.25 404.65 166.73 399.70
  Q 166.79 399.06 166.15 399.02
  Q 164.19 398.90 162.09 399.15
  Z"
/>
<path fill="#b18737" d="
  M 183.35 402.84
  A 1.21 1.20 8.8 0 0 184.18 403.97
  C 191.82 406.40 190.03 396.05 189.99 392.24
  A 0.73 0.73 0.0 0 1 190.72 391.50
  L 192.00 391.50
  Q 192.50 391.50 192.50 392.00
  L 192.50 404.98
  A 1.20 1.20 0.0 0 1 190.15 405.34
  L 189.97 404.76
  Q 189.79 404.20 189.36 404.60
  C 186.50 407.27 181.15 407.02 180.93 402.17
  Q 180.71 397.16 180.74 392.11
  Q 180.75 391.45 181.41 391.44
  L 182.65 391.43
  Q 183.19 391.42 183.20 391.96
  L 183.35 402.84
  Z"
/>
<path fill="#b18737" d="
  M 198.94 393.17
  Q 199.91 391.20 202.15 391.23
  Q 202.62 391.24 202.84 391.65
  Q 203.32 392.55 202.47 393.27
  Q 202.18 393.51 201.80 393.50
  C 197.53 393.38 198.34 401.77 198.70 405.12
  Q 198.78 405.86 198.04 405.89
  L 196.70 405.96
  A 0.71 0.71 0.0 0 1 195.96 405.23
  L 196.20 391.89
  A 0.69 0.69 0.0 0 1 197.13 391.25
  L 197.73 391.47
  Q 198.25 391.66 198.25 392.22
  L 198.25 393.01
  A 0.36 0.36 0.0 0 0 198.94 393.17
  Z"
/>
<path fill="#b18737" d="
  M 216.29 404.17
  C 213.63 406.67 207.44 407.46 205.51 403.30
  C 199.23 389.75 218.69 386.79 217.11 398.72
  Q 217.04 399.25 216.50 399.25
  L 207.74 399.25
  Q 207.17 399.25 207.11 399.81
  C 206.67 403.95 210.68 405.41 213.82 403.57
  A 0.90 0.88 -5.4 0 0 214.20 403.12
  Q 214.47 402.39 215.45 402.30
  A 1.09 1.08 20.8 0 1 216.29 404.17
  Z
  M 207.75 397.53
  L 214.06 397.43
  A 0.71 0.71 0.0 0 0 214.76 396.71
  L 214.76 396.62
  A 3.71 3.66 -0.9 0 0 210.99 393.02
  L 210.67 393.02
  A 3.71 3.66 -0.9 0 0 207.02 396.74
  L 207.02 396.83
  A 0.71 0.71 0.0 0 0 207.75 397.53
  Z"
/>
<path fill="#b18737" d="
  M 254.76 403.65
  C 253.66 407.25 245.46 406.99 243.76 403.30
  C 237.59 389.92 256.71 386.45 255.38 398.87
  Q 255.34 399.25 254.96 399.25
  L 245.98 399.25
  Q 245.42 399.25 245.37 399.81
  C 244.91 404.82 250.20 405.51 253.22 402.52
  Q 253.66 402.09 254.19 402.37
  Q 255.02 402.81 254.76 403.65
  Z
  M 246.19 397.40
  L 252.11 397.60
  A 0.77 0.77 0.0 0 0 252.91 396.86
  L 252.91 396.71
  A 3.59 3.58 2.0 0 0 249.45 393.01
  L 249.17 393.00
  A 3.59 3.58 2.0 0 0 245.46 396.45
  L 245.45 396.60
  A 0.77 0.77 0.0 0 0 246.19 397.40
  Z"
/>
<path fill="#b18737" d="
  M 261.62 396.57
  C 264.05 397.54 267.69 397.78 269.17 400.00
  C 270.91 402.64 268.99 405.35 266.19 406.01
  C 264.67 406.36 257.00 406.20 258.07 402.82
  A 1.12 1.12 0.0 0 1 260.12 402.61
  C 261.23 404.63 266.72 405.19 267.32 402.83
  A 2.27 2.27 0.0 0 0 265.51 400.04
  C 250.43 397.41 262.74 386.04 269.28 393.75
  A 0.77 0.77 0.0 0 1 268.68 395.02
  C 265.70 394.97 265.61 391.54 261.49 393.62
  A 1.62 1.62 0.0 0 0 261.62 396.57
  Z"
/>
<rect fill="#b18737" x="-1.25" y="-7.32" transform="translate(273.75,398.68) rotate(-0.1)" width="2.50" height="14.64" rx="0.74"/>
<path fill="#b18737" d="
  M 305.28 403.98
  C 299.56 409.01 292.29 405.41 293.25 397.71
  C 294.46 387.97 306.95 389.69 305.91 398.68
  A 0.65 0.64 -86.5 0 1 305.27 399.25
  L 296.76 399.25
  Q 296.31 399.25 296.19 399.67
  C 294.83 404.17 300.45 405.77 303.19 402.84
  Q 303.52 402.50 303.99 402.50
  L 304.72 402.50
  A 0.85 0.85 0.0 0 1 305.28 403.98
  Z
  M 296.76 397.50
  L 302.70 397.52
  A 0.78 0.78 0.0 0 0 303.48 396.74
  L 303.48 396.58
  A 3.59 3.58 0.1 0 0 299.89 392.99
  L 299.57 392.99
  A 3.59 3.58 0.1 0 0 295.98 396.56
  L 295.98 396.72
  A 0.78 0.78 0.0 0 0 296.76 397.50
  Z"
/>
<path fill="#b18737" d="
  M 322.44 402.26
  L 325.98 392.02
  Q 326.16 391.50 326.72 391.50
  L 327.98 391.50
  Q 328.68 391.50 328.44 392.16
  Q 325.94 398.93 323.20 405.57
  C 321.94 408.62 321.36 411.07 317.69 411.80
  Q 317.18 411.90 316.69 411.72
  Q 315.48 411.27 315.95 410.34
  Q 316.19 409.88 316.70 409.83
  Q 320.01 409.51 320.57 406.04
  Q 320.65 405.51 320.45 405.01
  L 315.26 391.97
  A 0.51 0.51 0.0 0 1 315.84 391.28
  L 317.13 391.57
  Q 317.73 391.71 317.95 392.29
  L 321.70 402.27
  A 0.39 0.39 0.0 0 0 322.44 402.26
  Z"
/>
<path fill="#b18737" d="
  M 342.7313 400.4032
  A 5.82 5.82 0.0 0 1 336.8809 406.1926
  L 335.8409 406.1872
  A 5.82 5.82 0.0 0 1 330.0514 400.3368
  L 330.0687 397.0368
  A 5.82 5.82 0.0 0 1 335.9191 391.2474
  L 336.9591 391.2528
  A 5.82 5.82 0.0 0 1 342.7486 397.1032
  L 342.7313 400.4032
  Z
  M 340.2584 396.6437
  A 3.55 3.55 0.0 0 0 336.7583 393.0445
  L 336.1984 393.0366
  A 3.55 3.55 0.0 0 0 332.5991 396.5367
  L 332.5416 400.6563
  A 3.55 3.55 0.0 0 0 336.0417 404.2555
  L 336.6016 404.2634
  A 3.55 3.55 0.0 0 0 340.2009 400.7633
  L 340.2584 396.6437
  Z"
/>
<path fill="#b18737" d="
  M 354.96 404.43
  A 0.43 0.43 0.0 0 0 354.22 404.35
  C 351.88 407.64 345.96 406.73 345.80 402.07
  Q 345.63 397.12 345.80 392.16
  Q 345.82 391.50 346.48 391.50
  L 347.53 391.50
  A 0.72 0.72 0.0 0 1 348.25 392.22
  C 348.26 395.12 347.63 400.99 348.76 403.47
  A 1.07 1.06 86.0 0 0 349.41 404.04
  C 356.83 406.28 355.03 395.61 354.99 391.90
  A 0.66 0.65 -83.5 0 1 355.80 391.25
  L 356.97 391.55
  Q 357.50 391.68 357.50 392.23
  L 357.50 405.00
  A 1.31 1.05 -52.2 0 1 355.19 405.55
  Q 355.17 404.94 354.96 404.43
  Z"
/>
</svg>
